HIERARCHY
ROOT Hips
{
	OFFSET 0.000000 0.000000 0.000000
	CHANNELS 6 Xposition Yposition Zposition Zrotation Yrotation Xrotation 
	JOINT LHipJoint
	{
		OFFSET 0.000000 0.000000 0.000000
		CHANNELS 3 Zrotation Yrotation Xrotation
		JOINT LeftUpLeg
		{
			OFFSET 1.363060 -1.794630 0.839290
			CHANNELS 3 Zrotation Yrotation Xrotation
			JOINT LeftLeg
			{
				OFFSET 2.448110 -6.726130 0.000000
				CHANNELS 3 Zrotation Yrotation Xrotation
				JOINT LeftFoot
				{
					OFFSET 2.562200 -7.039590 0.000000
					CHANNELS 3 Zrotation Yrotation Xrotation
					JOINT LeftToeBase
					{
						OFFSET 0.157640 -0.433110 2.322550
						CHANNELS 3 Zrotation Yrotation Xrotation
						End Site
						{
							OFFSET 0.000000 0.000000 0.000000
						}
					}
				}
			}
		}
	}
	JOINT RHipJoint
	{
		OFFSET 0.000000 0.000000 0.000000
		CHANNELS 3 Zrotation Yrotation Xrotation
		JOINT RightUpLeg
		{
			OFFSET -1.305520 -1.794630 0.839290
			CHANNELS 3 Zrotation Yrotation Xrotation
			JOINT RightLeg
			{
				OFFSET -2.542530 -6.985550 0.000000
				CHANNELS 3 Zrotation Yrotation Xrotation
				JOINT RightFoot
				{
					OFFSET -2.568260 -7.056230 0.000000
					CHANNELS 3 Zrotation Yrotation Xrotation
					JOINT RightToeBase
					{
						OFFSET -0.164730 -0.452590 2.363150
						CHANNELS 3 Zrotation Yrotation Xrotation
						End Site
						{
							OFFSET 0.000000 0.000000 0.000000
						}
					}
				}
			}
		}
	}
}
MOTION
Frames: 19
Frame Time: 0.008333
22.582122 16.824711 1.847105 24.128539 -87.305367 5.615506 -9.102344 0.216176 3.841132 -4.893464 -12.243106 -36.805487 -1.221024 -0.407707 24.342249 4.014455 16.080218 -20.660481 -3.435800 -0.000000 -35.753601 8.277816 0.291240 3.297951 4.966049 11.253737 -35.747927 1.632368 0.040317 26.210457 -3.699043 -9.276985 -23.978003 2.701200 0.000000 -50.997000
22.554553 16.749966 1.844921 27.549143 -87.154272 2.899401 -8.969155 0.170788 3.903355 -5.003456 -12.843630 -38.572363 -1.193564 -0.267955 26.682038 4.193044 16.456705 -21.866187 -3.868600 0.000000 -35.135601 8.371386 0.413581 3.382786 4.451127 11.589594 -37.869926 1.524324 -0.245232 29.199107 -3.757591 -9.168131 -25.169273 2.917800 0.000000 -49.930899
22.526588 16.663905 1.842293 30.850736 -86.952497 0.322071 -8.848502 0.125978 3.974489 -5.134774 -13.424119 -40.481156 -1.162016 -0.107552 29.214420 4.368490 16.804197 -23.105258 -4.320000 0.000000 -34.539900 8.469022 0.538698 3.476066 3.911915 11.858915 -40.068312 1.409433 -0.535118 32.272326 -3.812017 -9.074711 -26.351060 3.129000 -0.000000 -48.798000
22.497829 16.565667 1.839469 33.916039 -86.703955 -1.989736 -8.742341 0.081906 4.061661 -5.276746 -13.997475 -42.545718 -1.121002 0.073789 31.931738 4.541025 17.137205 -24.348632 -4.781000 -0.000000 -34.002700 8.569064 0.667081 3.583460 3.348276 12.067483 -42.355594 1.284610 -0.826886 35.421851 -3.868316 -9.023912 -27.515897 3.340200 -0.000000 -47.665500
22.468483 16.454763 1.836999 36.556793 -86.416631 -3.842748 -8.653686 0.037299 4.169655 -5.408846 -14.571204 -44.770696 -1.064906 0.275983 34.823981 4.709461 17.464541 -25.571678 -5.242999 0.000000 -33.555900 8.667912 0.798553 3.708720 2.770381 12.228958 -44.731278 1.147008 -1.117803 38.635981 -3.932888 -9.045334 -28.654981 3.559400 0.000001 -46.606000
22.438032 16.330517 1.834770 38.732137 -86.089147 -5.207659 -8.581428 -0.008311 4.298874 -5.525024 -15.155460 -47.132354 -0.990709 0.497842 37.876988 4.871751 17.789759 -26.761460 -5.701900 0.000000 -33.208700 8.766936 0.935292 3.847785 2.187576 12.336465 -47.169635 0.996322 -1.406716 41.904811 -4.010238 -9.154657 -29.782947 3.798200 -0.000000 -45.707200
22.407185 16.193870 1.834481 40.289227 -85.753220 -5.915020 -8.528532 -0.060521 4.454924 -5.581850 -15.754311 -49.640911 -0.890396 0.734528 41.061323 5.030088 18.135403 -27.895473 -6.153400 -0.000000 -32.994100 8.858985 1.073583 4.010111 1.614693 12.433315 -49.693956 0.828976 -1.692048 45.219950 -4.102854 -9.371963 -30.866175 4.059400 0.000000 -44.986500
22.375497 16.044760 1.835791 41.370125 -85.413334 -6.128306 -8.491772 -0.120200 4.633535 -5.586017 -16.361721 -52.252015 -0.765493 0.982336 44.351782 5.182331 18.495203 -28.982559 -6.600100 -0.000001 -32.881800 8.947267 1.213320 4.189134 1.065178 12.502489 -52.263434 0.648920 -1.973492 48.556890 -4.209135 -9.682473 -31.924813 4.348599 -0.000000 -44.594500
22.343249 15.884312 1.839018 42.009850 -85.078696 -5.901447 -8.469586 -0.190239 4.828797 -5.529114 -16.976996 -54.916948 -0.616314 1.236600 47.712800 5.328428 18.874184 -30.032560 -7.047800 -0.000000 -32.852600 9.031259 1.354752 4.376999 0.553448 12.550808 -54.839408 0.457788 -2.251119 51.902210 -4.329177 -10.082959 -32.973345 4.672800 0.000000 -44.484300
22.310985 15.714213 1.844317 42.266631 -84.759936 -5.315256 -8.460869 -0.272164 5.033237 -5.410931 -17.589820 -57.578315 -0.445898 1.492695 51.104986 5.468117 19.272057 -31.063463 -7.504600 -0.000000 -32.879000 9.110914 1.496251 4.564799 0.098130 12.578794 -57.373856 0.259433 -2.524720 55.231056 -4.460503 -10.557215 -34.025480 5.034900 -0.000000 -44.639900
22.278552 15.536612 1.851647 42.216537 -84.466103 -4.470036 -8.464074 -0.366316 5.237547 -5.238803 -18.187795 -60.175563 -0.259177 1.746706 54.487396 5.601651 19.687452 -32.098819 -7.980800 0.000000 -32.923300 9.186727 1.636629 4.742510 -0.285583 12.587080 -59.817653 0.057872 -2.794279 58.517979 -4.599960 -11.085261 -35.096412 5.436199 0.000000 -45.005200
22.246309 15.354104 1.860750 41.941526 -84.203653 -3.468378 -8.477992 -0.471317 5.432881 -5.026458 -18.758045 -62.648147 -0.062214 1.995312 57.818006 5.729474 20.117855 -33.161100 -8.486400 -0.000000 -32.950800 9.259780 1.773930 4.900975 -0.585975 12.575725 -62.121491 -0.143020 -3.059372 61.734866 -4.743976 -11.645656 -36.197886 5.875601 0.000000 -45.507700
22.214193 15.169589 1.871297 41.514268 -83.976915 -2.402867 -8.501528 -0.584891 5.610790 -4.791709 -19.288560 -64.942078 0.138604 2.236223 61.056202 5.852073 20.559929 -34.267453 -9.029100 0.000000 -32.936100 9.331182 1.906398 5.032059 -0.796959 12.544240 -64.242558 -0.339799 -3.319416 64.852715 -4.888696 -12.216825 -37.334765 6.349100 0.000000 -46.073900
22.182285 14.986182 1.882701 41.017090 -83.787375 -1.370838 -8.534049 -0.703713 5.762831 -4.558558 -19.766686 -67.006468 0.336678 2.467928 64.163763 5.969258 21.008074 -35.425149 -9.612000 -0.000000 -32.864200 9.402683 2.031620 5.128122 -0.915565 12.488037 -66.140431 -0.528741 -3.573599 67.840616 -5.029356 -12.773806 -38.505224 6.848100 -0.000000 -46.634500
22.149844 14.807003 1.894364 40.506375 -83.631889 -0.424613 -8.573937 -0.823422 5.891249 -4.338211 -20.193306 -68.826052 0.527970 2.687845 67.101339 6.081868 21.459483 -36.622134 -10.230100 -0.000000 -32.758400 9.474881 2.147154 5.194940 -0.959244 12.420241 -67.809715 -0.710940 -3.818669 70.672875 -5.164590 -13.312864 -39.686818 7.364400 0.000001 -47.139400
22.116994 14.635087 1.905666 40.051724 -83.509523 0.355303 -8.620900 -0.940530 5.987858 -4.157934 -20.554508 -70.365834 0.706755 2.895755 69.839189 6.187635 21.901895 -37.841235 -10.872900 0.000000 -32.631000 9.549421 2.250486 5.226137 -0.930259 12.328698 -69.221917 -0.881649 -4.053635 73.317036 -5.287897 -13.802715 -40.862013 7.878600 0.000000 -47.560400
22.082739 14.473313 1.916013 39.700536 -83.415203 0.931841 -8.673527 -1.050653 6.055456 -4.029306 -20.848828 -71.624714 0.869864 3.089629 72.346008 6.285045 22.324641 -39.047395 -11.520600 0.000000 -32.528600 9.626825 2.338926 5.228582 -0.848122 12.218314 -70.380995 -1.040246 -4.275049 75.746637 -5.396302 -14.232626 -41.997277 8.372900 0.000000 -47.890299
22.046421 14.324296 1.924915 39.486855 -83.344461 1.278584 -8.730438 -1.149916 6.096265 -3.962565 -21.072934 -72.605940 1.014457 3.267763 74.596002 6.371534 22.713459 -40.200223 -12.148600 -0.000000 -32.498600 9.707083 2.410156 5.208512 -0.730140 12.090707 -71.292851 -1.184843 -4.479688 77.935883 -5.486453 -14.589324 -43.059116 8.827100 0.000000 -48.143600
22.007156 14.190410 1.932016 39.435119 -83.292628 1.382061 -8.790077 -1.234470 6.113584 -3.963970 -21.223227 -73.319109 1.137958 3.428185 76.565782 6.444240 23.052299 -41.257855 -12.729201 0.000000 -32.585700 9.789726 2.462132 5.173059 -0.592207 11.947664 -71.967106 -1.312990 -4.664126 79.860777 -5.555601 -14.861487 -44.015957 9.221600 0.000000 -48.350800
